<svg xmlns="http://www.w3.org/2000/svg" width="24" height="24" fill="none" id="image">
  <path fill="#200E32" fill-rule="evenodd" d="M7.637 3.395c-2.577 0-4.242 1.767-4.242 4.493v8.214c0 .765.142 1.448.385 2.04l.538-.656c.584-.71 1.433-1.746 1.44-1.752.691-.79 1.99-1.968 3.695-1.255.374.155.706.368 1.012.563l.088.056c.573.383.91.563 1.26.533.145-.02.281-.063.41-.143.487-.3 1.749-2.087 2.126-2.622l.104-.147c1.09-1.42 2.77-1.8 4.17-.96.188.112 1.535 1.053 1.981 1.431V7.888c0-2.726-1.665-4.493-4.25-4.493H7.636ZM16.353 2C19.73 2 22 4.362 22 7.888v8.214c0 .09-.009.172-.018.255a3.044 3.044 0 0 0-.02.287c-.002.048-.004.097-.008.145-.002.02-.005.038-.01.056a.554.554 0 0 0-.009.055 6.805 6.805 0 0 1-.155.905c-.016.073-.036.143-.055.214l-.005.015c-.08.282-.174.551-.287.808l-.061.128a5.397 5.397 0 0 1-.448.783c-.029.04-.059.078-.09.116l-.059.075a5.073 5.073 0 0 1-.513.582c-.037.036-.078.069-.118.101l-.076.062a5.05 5.05 0 0 1-.607.461c-.047.03-.097.055-.147.08-.033.016-.065.032-.097.05a5.316 5.316 0 0 1-.687.332c-.058.023-.12.039-.183.055a2.488 2.488 0 0 0-.132.036l-.064.02a5.13 5.13 0 0 1-.668.175c-.135.024-.279.033-.422.042a9.312 9.312 0 0 0-.187.013c-.066.005-.13.013-.196.021a2.594 2.594 0 0 1-.324.026H7.637c-.376 0-.735-.038-1.082-.095l-.037-.006c-1.353-.233-2.476-.886-3.263-1.87-.005 0-.007-.004-.01-.01a.046.046 0 0 0-.008-.01C2.447 19.013 2 17.674 2 16.102V7.888C2 4.362 4.27 2 7.637 2h8.716ZM11 8.515C11 9.87 9.866 11 8.505 11a2.52 2.52 0 0 1-2.446-2.006A2.409 2.409 0 0 1 6 8.469 2.472 2.472 0 0 1 8.479 6c.697 0 1.33.293 1.782.761.454.452.739 1.075.739 1.754Z" clip-rule="evenodd"></path>
</svg>
