<svg xmlns="http://www.w3.org/2000/svg" width="24" height="24" fill="none" id="shield-fail">
  <path fill="#200E32" fill-rule="evenodd" d="M19.201 4.329a1.8 1.8 0 0 1 1.248 1.697l.05 6.638a8.245 8.245 0 0 1-2.072 5.492c-.614.706-1.41 1.304-2.416 1.844l-3.573 1.912a.749.749 0 0 1-.352.088.789.789 0 0 1-.363-.088L8.12 20.049c-1.016-.53-1.812-1.118-2.436-1.814a8.224 8.224 0 0 1-2.143-5.472l-.04-6.64c-.01-.765.492-1.45 1.227-1.706l6.613-2.313a1.87 1.87 0 0 1 1.228 0L19.2 4.329Zm-4.78 9.758a.726.726 0 0 0 0-1.04l-1.36-1.325 1.36-1.322a.727.727 0 0 0 0-1.04.774.774 0 0 0-1.067 0l-1.359 1.324-1.359-1.325a.774.774 0 0 0-1.067 0 .727.727 0 0 0 0 1.04l1.36 1.323-1.36 1.325a.726.726 0 0 0 0 1.04.756.756 0 0 0 .534.214.723.723 0 0 0 .533-.214l1.359-1.324 1.359 1.324c.15.147.342.214.533.214a.739.739 0 0 0 .534-.214Z" clip-rule="evenodd"></path>
</svg>
